PathFileType  4	(X/Y/Z) C:\Users\antoi\Documents\MyRepositories\mobilecap\ResultsAnalysis
DataRate	CameraRate	NumFrames	NumMarkers	Units	OrigDataRate	OrigDataStartFrame	OrigNumFrames
100.0	100.0	5	51	mm	100.0	297	1184
Frame#	Time	r_knee			r_shank_antsup			r_ankle			r_calc			r_5meta			r_toe			L_knee			L_shank_antsup			L_ankle			L_calc			L_5meta			L_toe			r_sh2			r_sh3			r_sh4			L_sh2			L_sh3			r_thigh1			r_thigh2			r_thigh3			r_thigh4			r_thigh5			L_thigh1			L_thigh2			L_thigh3			L_thigh4			r.ASIS			r.PSIS			L.ASIS			L.PSIS			C7			R_Shoulder			L_Shoulder			R_Sternum			L_Sternum			R_humerus			R_elbow_med			R_elbow_lat			R_forearm			R_wrist_radius			R_wrist_ulna			L_humerus			L_elbow_med			L_elbow_lat			L_forearm			L_wrist_radius			L_wrist_ulna			R_HJC			L_HJC			R_HJC_reg			L_HJC_reg			
		X1	Y1	Z1	X2	Y2	Z2	X3	Y3	Z3	X4	Y4	Z4	X5	Y5	Z5	X6	Y6	Z6	X7	Y7	Z7	X8	Y8	Z8	X9	Y9	Z9	X10	Y10	Z10	X11	Y11	Z11	X12	Y12	Z12	X13	Y13	Z13	X14	Y14	Z14	X15	Y15	Z15	X16	Y16	Z16	X17	Y17	Z17	X18	Y18	Z18	X19	Y19	Z19	X20	Y20	Z20	X21	Y21	Z21	X22	Y22	Z22	X23	Y23	Z23	X24	Y24	Z24	X25	Y25	Z25	X26	Y26	Z26	X27	Y27	Z27	X28	Y28	Z28	X29	Y29	Z29	X30	Y30	Z30	X31	Y31	Z31	X32	Y32	Z32	X33	Y33	Z33	X34	Y34	Z34	X35	Y35	Z35	X36	Y36	Z36	X37	Y37	Z37	X38	Y38	Z38	X39	Y39	Z39	X40	Y40	Z40	X41	Y41	Z41	X42	Y42	Z42	X43	Y43	Z43	X44	Y44	Z44	X45	Y45	Z45	X46	Y46	Z46	X47	Y47	Z47	X48	Y48	Z48	X49	Y49	Z49	X50	Y50	Z50	X51	Y51	Z51	

297	2.96000000	-155.53373	433.80519	-383.53599	-134.83226	316.90358	-382.94512	-303.27968	93.19921	-411.47296	-349.75158	52.21541	-462.50911	-206.38453	41.47387	-352.98546	-162.71423	58.20409	-389.78137	-140.53427	438.17828	-880.39818	-106.17001	322.64971	-856.54643	-289.58361	92.34271	-856.54696	-334.02924	52.77246	-807.07371	-185.71171	36.90547	-906.20657	-137.03205	54.60650	-860.39474	-187.29652	217.89123	-397.43846	-196.76301	341.47097	-347.30600	-257.86513	250.30366	-370.92934	-162.75203	366.61406	-906.65256	-220.02475	260.66260	-915.42295	-290.30921	706.80463	-429.61161	-214.72826	635.08587	-407.82660	-238.52586	585.17573	-365.98836	-370.12814	631.02386	-405.04386	-285.90330	555.63144	-377.52143	-284.73118	686.57449	-834.25201	-182.38207	606.87815	-866.34426	-367.55657	612.36788	-855.21231	-257.14856	526.75043	-880.71485	-273.06678	741.40390	-499.45518	-408.59664	857.13219	-578.43552	-259.11405	729.74486	-740.97133	-404.46070	855.32256	-692.70728	-197.35356	1233.55206	-623.33477	-138.99188	1198.02257	-475.46767	-125.19759	1201.22627	-769.97043	-88.11175	1153.22998	-600.05719	-85.84452	1150.62081	-642.01340	-116.42818	1096.10458	-397.34435	-176.66153	890.60987	-352.65494	-120.24666	933.08083	-305.36906	-46.62292	972.02254	-396.41194	-13.08627	1012.46822	-483.23263	15.79479	988.55355	-476.87590	-82.29806	1084.31836	-847.71477	-120.10072	883.96099	-886.87612	-67.23229	919.09549	-936.62094	-10.59368	951.49717	-849.23662	9.81718	989.82417	-731.98464	36.62710	971.75185	-733.69807	-382.77265	716.67108	-528.56636	-370.05070	703.39406	-717.04971	-364.75277	708.31209	-536.05969	-358.97125	705.78247	-695.78544	
298	2.97000000	-153.77336	432.41013	-382.97382	-133.10648	315.61738	-382.62730	-302.55212	92.30829	-412.40370	-349.73470	52.29356	-462.61013	-206.36606	41.48412	-352.99234	-162.69038	58.13407	-389.81876	-139.25147	437.21664	-880.96012	-104.90714	321.63995	-856.86151	-289.41618	92.29896	-856.48618	-334.02975	52.77438	-807.07162	-185.70855	36.90250	-906.21040	-137.00974	54.56890	-860.39950	-186.25535	216.97383	-397.38939	-194.83389	340.47393	-346.75477	-256.94374	250.78117	-370.38497	-161.86690	365.42523	-906.29145	-219.14822	260.07055	-915.59795	-293.03346	702.94033	-429.17866	-216.35389	632.43317	-407.58512	-239.32762	582.34536	-365.68780	-371.74073	625.80028	-405.10353	-286.09511	551.74847	-377.62059	-287.33692	683.08616	-833.88673	-183.59827	605.21066	-865.87453	-368.92989	607.78900	-855.56086	-257.03201	524.24119	-881.50029	-274.15705	734.83368	-499.21681	-410.22675	850.92053	-578.34678	-261.77832	723.01152	-741.68231	-406.39758	849.16839	-692.64413	-194.83595	1224.92388	-623.06991	-136.07802	1189.09570	-475.09947	-122.64145	1191.84739	-769.17531	-86.29527	1143.70881	-599.89071	-83.96233	1141.03795	-641.90119	-113.60556	1087.76381	-397.35512	-172.18794	881.88258	-352.34685	-116.01857	924.83712	-305.23137	-43.12612	964.46737	-396.28466	-10.02434	1005.05314	-483.65889	19.06973	981.41290	-477.42844	-79.36683	1075.33163	-847.23460	-115.92967	874.75606	-886.46827	-63.07407	910.28960	-936.02651	-6.92097	942.85946	-848.32742	12.71759	981.12121	-731.17424	39.64653	963.33364	-732.79015	-384.31864	710.47450	-528.34098	-372.55738	696.97500	-716.86843	-366.62471	701.46795	-535.75956	-361.25496	699.01086	-696.08024	
299	2.98000000	-152.16434	431.13759	-382.30723	-131.54957	314.45424	-382.17765	-301.64106	91.00232	-413.74444	-349.69491	52.34853	-462.68229	-206.36186	41.49233	-352.97936	-162.68681	58.09389	-389.82465	-137.98918	436.25319	-881.55103	-103.69728	320.64731	-857.18014	-289.24336	92.23196	-856.39351	-334.02045	52.77508	-807.05211	-185.70473	36.89297	-906.22000	-136.97884	54.52165	-860.39961	-185.36528	216.23668	-397.26345	-193.05117	339.54396	-346.20907	-256.03605	251.06145	-369.88992	-160.88492	364.34725	-906.08744	-218.27856	259.52393	-915.86253	-295.58902	699.08721	-429.32638	-217.82295	629.91028	-407.45529	-239.98348	579.54929	-365.62733	-373.08746	620.89623	-405.01313	-286.30224	548.32186	-377.07938	-289.91385	679.49743	-833.54691	-184.84982	603.44995	-865.51366	-370.45589	603.10100	-855.77483	-257.06421	521.62572	-882.08810	-274.10969	728.06243	-499.23057	-411.84991	844.77881	-578.60053	-263.95196	716.29105	-742.18327	-408.26438	843.13154	-692.52377	-192.28562	1216.44835	-623.07239	-133.24504	1180.31895	-474.99473	-120.14664	1182.65679	-768.39005	-84.53535	1134.32625	-599.75420	-82.12321	1131.58132	-641.66342	-110.82130	1079.40278	-397.22423	-167.77400	873.10711	-352.01411	-111.85430	916.60698	-305.21291	-39.61585	956.86490	-396.34595	-6.99344	997.40689	-483.85346	22.23320	974.24034	-477.85622	-76.59536	1066.44071	-846.83331	-112.09702	865.83546	-886.55119	-59.12155	901.59510	-935.47716	-3.53498	934.31216	-847.45959	15.51785	972.41448	-729.90856	42.56350	955.13899	-731.99762	-385.16924	704.20483	-528.13086	-374.56734	690.47815	-716.71186	-367.67637	694.41747	-535.71760	-362.62325	692.09604	-696.30089	
300	2.99000000	-150.69363	429.96355	-381.66162	-130.16630	313.48603	-381.51823	-301.47142	91.03043	-413.75355	-349.66618	52.34376	-462.70006	-206.38706	41.49145	-352.92756	-162.66934	58.07416	-389.78785	-136.83829	435.24869	-882.01072	-102.51410	319.70114	-857.57110	-289.11063	92.19545	-856.33245	-334.00882	52.78959	-807.04101	-185.70616	36.88268	-906.22755	-136.92991	54.46148	-860.41055	-184.63447	215.69410	-396.98726	-191.49377	338.69128	-345.63445	-254.70164	249.91351	-369.61275	-159.15002	363.86203	-907.07641	-217.37216	259.04355	-916.18197	-297.82511	695.32836	-429.87246	-219.26578	627.59319	-407.54583	-240.52894	576.95259	-365.54428	-374.20116	616.39856	-404.53324	-286.49741	545.31831	-376.10029	-292.37989	675.92764	-833.47198	-186.16313	601.67890	-865.31442	-371.97141	598.35657	-855.90697	-257.27357	518.80435	-882.27195	-274.67919	721.00609	-499.70614	-413.39342	838.67193	-578.68721	-265.82845	709.67043	-742.50228	-409.93764	837.09656	-692.23336	-189.95922	1208.19922	-623.14163	-130.52838	1171.79081	-474.97702	-117.80658	1173.60817	-767.88949	-82.81269	1125.04563	-599.55950	-80.39687	1122.21572	-641.29199	-108.05727	1070.97850	-397.18861	-163.49539	864.41695	-351.56639	-107.69424	908.43938	-305.16417	-36.01670	949.26658	-396.58670	-4.00031	989.81214	-484.02409	25.33688	967.12058	-478.27755	-74.05886	1057.60287	-846.36761	-108.51106	857.13703	-886.67032	-55.47208	892.96974	-934.93823	-0.32258	925.98610	-846.77076	18.26671	964.02133	-728.83297	45.44705	947.07208	-731.12554	-386.34123	697.72383	-528.18673	-376.50684	684.18972	-716.82468	-368.91994	687.75847	-536.11349	-364.03681	685.53238	-696.54832	
301	3.00000000	-149.36646	428.85223	-381.04761	-128.93887	312.50713	-380.98391	-301.97935	92.27778	-412.57637	-349.64148	52.31182	-462.70134	-206.42406	41.48111	-352.85672	-162.63285	58.02153	-389.73488	-135.79946	434.19455	-882.34941	-101.33898	318.84813	-858.05537	-288.99941	92.24607	-856.35373	-334.02558	52.84006	-807.08286	-185.70518	36.87816	-906.22744	-136.86773	54.39120	-860.42256	-183.91000	215.11738	-396.67637	-190.15626	337.91623	-345.04724	-253.44423	248.26533	-369.54584	-157.26312	363.56601	-908.33447	-216.48782	258.64950	-916.46390	-299.92565	691.82004	-430.31206	-220.69304	625.38442	-407.87643	-240.96791	574.64503	-365.33567	-375.29290	612.31887	-403.68971	-286.55663	542.52076	-375.31165	-294.80033	672.45067	-833.64306	-187.59205	599.93457	-865.19496	-373.32473	593.71388	-856.11068	-257.45416	515.91845	-882.32201	-276.40410	714.14118	-500.28723	-414.75682	832.65111	-578.34329	-267.96618	703.26895	-742.82841	-411.38097	831.08816	-691.81369	-188.12284	1200.17283	-622.99581	-128.15035	1163.52991	-474.60829	-115.63219	1164.71309	-767.58419	-81.14671	1115.90861	-599.25246	-78.78984	1113.02734	-641.00237	-105.32680	1062.68587	-397.36513	-159.26233	855.95017	-351.12943	-103.55792	900.40488	-305.03655	-32.52867	941.79038	-396.77665	-1.11389	982.44147	-484.38964	28.43022	960.06232	-478.61810	-71.72263	1048.92173	-845.97916	-104.95669	848.39916	-886.16851	-52.05467	884.36792	-934.27004	2.89997	917.97817	-846.08611	20.92793	956.11592	-728.41158	48.25289	939.12267	-730.26531	-388.12940	691.35028	-528.31697	-378.76413	678.23749	-717.00789	-370.86609	681.64999	-536.60735	-366.09836	679.44266	-696.85508	
